# File created by Blade
# Date/Time:  Tue Apr 07 21:36:59 2015
# Frame Rate: 120.000 fps
#------------------------------------------------------
:FULLY-SPECIFIED
:DEGREES
716
root -4.197430 32.832447 10.393750 525.724041 -99.586799 -506.500829
Spine -6.695021 -0.163982 -3.401950
Head -4.560214 7.083124 -13.799426
LeftShoulder -24.890060 43.139998 10.912380
LeftArm 53.745454 -38.801698 -85.512189
LeftForeArm 0.878248 -0.000000 8.214803
LeftHand 15.045434 -0.000000 17.535169
LeftHandThumb1 -26.253704 0.000000 33.147579
RightShoulder -1.443395 5.624133 -26.612892
RightArm 19.936018 5.537085 69.974445
RightForeArm -6.026933 0.000000 16.195996
RightHand 13.514963 -0.000000 -13.595704
RightHandThumb1 -24.326973 -0.000000 -32.862282
LeftUpLeg -32.627043 -14.711925 4.839765
LeftLeg 13.258209 -0.000000 -0.000000
LeftFoot -3.326902 -2.370924 -28.888628
LeftToeBase 3.888947 -0.000000 -0.000000
RightUpLeg -26.501724 -2.783260 1.167721
RightLeg 23.498452 -0.000000 -0.000000
RightFoot -15.259647 -17.624171 4.938157
RightToeBase -9.430176 -0.000000 0.000000
717
root -4.179910 32.853797 10.322341 527.535412 -100.428642 -508.245265
Spine -6.771803 0.072217 -3.490468
Head -4.634890 7.489241 -13.977546
LeftShoulder -24.976292 43.172242 10.670693
LeftArm 54.013865 -38.573502 -85.466320
LeftForeArm 1.104176 0.000000 7.841332
LeftHand 15.090762 -0.000000 17.302768
LeftHandThumb1 -26.253704 0.000000 33.147579
RightShoulder -1.340600 5.620323 -26.690018
RightArm 20.108031 5.391943 70.200729
RightForeArm -6.075780 -0.000000 16.166863
RightHand 13.319032 -0.000000 -13.764279
RightHandThumb1 -24.326973 -0.000000 -32.862282
LeftUpLeg -32.447036 -14.903444 4.812017
LeftLeg 12.645498 -0.000000 -0.000000
LeftFoot -2.930998 -3.179576 -29.965792
LeftToeBase 3.384929 -0.000000 -0.000000
RightUpLeg -26.452293 -3.135881 1.266278
RightLeg 23.196224 -0.000000 -0.000000
RightFoot -14.940255 -18.244162 4.750041
RightToeBase -9.532903 -0.000000 0.000000
718
root -4.170859 32.875845 10.252638 529.122731 -101.288305 -509.806398
Spine -6.834319 0.375730 -3.584004
Head -4.643117 7.843802 -14.171986
LeftShoulder -25.039025 43.230230 10.411420
LeftArm 54.444180 -38.390908 -85.420549
LeftForeArm 1.307384 -0.000000 7.377896
LeftHand 14.852640 -0.000000 16.988035
LeftHandThumb1 -26.253704 0.000000 33.147579
RightShoulder -1.271405 5.542439 -26.791344
RightArm 20.271449 5.312730 70.415457
RightForeArm -6.080093 0.000000 16.137517
RightHand 13.431484 -0.000000 -13.577941
RightHandThumb1 -24.326973 -0.000000 -32.862282
LeftUpLeg -32.231120 -15.069224 4.744107
LeftLeg 12.154420 -0.000000 -0.000000
LeftFoot -2.714165 -3.985750 -30.693886
LeftToeBase 3.000781 -0.000000 -0.000000
RightUpLeg -26.345535 -3.519460 1.378251
RightLeg 22.882518 -0.000000 -0.000000
RightFoot -14.559669 -18.837926 4.485032
RightToeBase -9.842180 -0.000000 0.000000
719
root -4.159827 32.898143 10.183811 530.478100 -102.170985 -511.145413
Spine -6.862216 0.642210 -3.716621
Head -4.692249 8.138980 -14.310642
LeftShoulder -25.167159 43.245135 10.196254
LeftArm 54.795878 -38.123773 -85.284485
LeftForeArm 1.543666 -0.000000 6.904536
LeftHand 15.003416 -0.000000 16.916491
LeftHandThumb1 -26.253704 0.000000 33.147579
RightShoulder -1.175319 5.474994 -26.835356
RightArm 20.424512 5.309018 70.535577
RightForeArm -5.885960 -0.000000 16.129357
RightHand 13.454707 -0.000000 -13.525235
RightHandThumb1 -24.326973 -0.000000 -32.862282
LeftUpLeg -32.054382 -15.258807 4.653119
LeftLeg 11.864293 -0.000000 -0.000000
LeftFoot -2.660689 -4.601562 -31.338286
LeftToeBase 1.850815 -0.000000 -0.000000
RightUpLeg -26.259701 -3.872551 1.470283
RightLeg 22.619897 -0.000000 -0.000000
RightFoot -14.106823 -19.455520 4.159117
RightToeBase -10.371306 -0.000000 0.000000
720
root -4.156642 32.920178 10.114546 531.796802 -103.052416 -512.468040
Spine -6.902514 0.960256 -3.826016
Head -4.677843 8.503832 -14.398307
LeftShoulder -25.263760 43.232347 9.994032
LeftArm 55.071199 -37.803462 -84.935881
LeftForeArm 1.633219 -0.000000 6.468669
LeftHand 14.517555 -0.000000 17.236110
LeftHandThumb1 -26.253704 0.000000 33.147579
RightShoulder -1.072481 5.393967 -26.868524
RightArm 20.540851 5.286702 70.571134
RightForeArm -5.828876 0.000000 16.117165
RightHand 13.477056 -0.000000 -13.549918
RightHandThumb1 -24.326973 -0.000000 -32.862282
LeftUpLeg -31.865893 -15.397547 4.549723
LeftLeg 11.771911 -0.000000 -0.000000
LeftFoot -2.844268 -4.995069 -31.516100
LeftToeBase 1.090867 -0.000000 -0.000000
RightUpLeg -26.106471 -4.117062 1.571368
RightLeg 22.283639 -0.000000 -0.000000
RightFoot -13.696736 -20.168796 3.901229
RightToeBase -10.628216 -0.000000 0.000000
721
root -4.161167 32.938953 10.050215 532.740429 -103.972099 -513.483852
Spine -6.880170 1.280466 -3.994137
Head -4.654457 8.873273 -14.440150
LeftShoulder -25.382562 43.264681 9.831007
LeftArm 55.454290 -37.535589 -84.741143
LeftForeArm 1.681677 -0.000000 6.028435
LeftHand 14.737600 0.000000 16.872709
LeftHandThumb1 -26.253704 0.000000 33.147579
RightShoulder -0.966367 5.342917 -26.915340
RightArm 20.526861 5.041185 70.460756
RightForeArm -5.467543 -0.000000 16.156849
RightHand 13.624670 0.000000 -13.718790
RightHandThumb1 -24.326973 -0.000000 -32.862282
LeftUpLeg -31.573572 -15.607593 4.348013
LeftLeg 11.856544 -0.000000 -0.000000
LeftFoot -3.421025 -4.855770 -31.321733
LeftToeBase 0.830802 -0.000000 -0.000000
RightUpLeg -26.067250 -4.862400 1.748680
RightLeg 22.320474 -0.000000 -0.000000
RightFoot -13.353496 -20.344866 3.652569
RightToeBase -10.970568 -0.000000 0.000000
722
root -4.164165 32.961669 9.977981 534.087686 -104.878074 -514.835133
Spine -6.948148 1.623097 -4.052263
Head -4.615552 9.292789 -14.461781
LeftShoulder -25.420011 43.292942 9.726421
LeftArm 55.842856 -37.426390 -84.705871
LeftForeArm 1.756037 0.000000 5.798034
LeftHand 14.469752 -0.000000 16.667704
LeftHandThumb1 -26.253704 0.000000 33.147579
RightShoulder -0.866205 5.311871 -26.930300
RightArm 20.431227 4.635805 70.169541
RightForeArm -4.924922 -0.000000 16.299776
RightHand 13.352382 -0.000000 -13.924010
RightHandThumb1 -24.326973 -0.000000 -32.862282
LeftUpLeg -31.328621 -15.926961 4.357554
LeftLeg 11.978612 -0.000000 -0.000000
LeftFoot -4.326651 -4.222143 -30.923897
LeftToeBase 0.409917 -0.000000 -0.000000
RightUpLeg -25.819065 -4.759484 1.807970
RightLeg 21.810541 -0.000000 -0.000000
RightFoot -12.921371 -21.231738 3.639827
RightToeBase -11.210340 -0.000000 0.000000
723
root -4.182677 32.984005 9.905569 535.078138 -105.770050 -515.973077
Spine -6.896450 2.027641 -4.147531
Head -4.505985 9.657511 -14.445995
LeftShoulder -25.411540 43.372371 9.679336
LeftArm 56.256868 -37.339829 -84.697976
LeftForeArm 1.763178 -0.000000 5.574446
LeftHand 14.409156 -0.000000 16.142895
LeftHandThumb1 -26.253704 0.000000 33.147579
RightShoulder -0.786552 5.281552 -26.966081
RightArm 20.476896 5.253063 70.389527
RightForeArm -5.355129 -0.000000 16.139538
RightHand 13.509737 -0.000000 -13.911172
RightHandThumb1 -24.326973 -0.000000 -32.862282
LeftUpLeg -30.964505 -15.917145 4.130946
LeftLeg 12.487704 -0.000000 -0.000000
LeftFoot -5.148398 -3.493373 -30.793591
LeftToeBase -0.329253 -0.000000 0.000000
RightUpLeg -25.485003 -4.949454 1.935845
RightLeg 21.439072 -0.000000 -0.000000
RightFoot -12.462930 -21.837525 3.491249
RightToeBase -11.546099 -0.000000 0.000000
724
root -4.198946 33.008049 9.841383 535.805544 -106.696558 -516.789437
Spine -6.901324 2.392944 -4.320960
Head -4.391919 9.975428 -14.355611
LeftShoulder -25.486127 43.501875 9.603074
LeftArm 56.899448 -37.397960 -85.004946
LeftForeArm 1.977920 -0.000000 5.458042
LeftHand 14.564159 -0.000000 15.722155
LeftHandThumb1 -26.253704 0.000000 33.147579
RightShoulder -0.770343 5.204187 -26.998915
RightArm 20.526292 5.524851 70.368968
RightForeArm -5.632214 -0.000000 16.035003
RightHand 13.717387 -0.000000 -13.826874
RightHandThumb1 -24.326973 -0.000000 -32.862282
LeftUpLeg -30.643081 -16.057718 3.901307
LeftLeg 13.066428 -0.000000 -0.000000
LeftFoot -6.140626 -2.346107 -30.679389
LeftToeBase -0.930344 -0.000000 0.000000
RightUpLeg -25.377034 -5.457492 2.062866
RightLeg 21.397768 -0.000000 -0.000000
RightFoot -11.982118 -22.107008 3.263048
RightToeBase -12.135467 -0.000000 0.000000
